<svg xmlns="http://www.w3.org/2000/svg" viewBox="0 0 1200 630" role="img" aria-labelledby="bannerTitle bannerDesc">
  <title id="bannerTitle">World Config  Terraria tModLoader Mod</title>
  <desc id="bannerDesc">Promotional banner: custom world size, 30+ generation sliders, ore veins, and persisted settings for Terraria via tModLoader</desc>

  <defs>
    <linearGradient id="skyTop" x1="0" y1="0" x2="0" y2="1">
      <stop offset="0%" stop-color="#060a18"/>
      <stop offset="45%" stop-color="#0c1230"/>
      <stop offset="100%" stop-color="#1a0f32"/>
    </linearGradient>
    <radialGradient id="nebulaL" cx="15%" cy="25%" r="55%">
      <stop offset="0%" stop-color="#3d5a9e" stop-opacity="0.55"/>
      <stop offset="100%" stop-color="#3d5a9e" stop-opacity="0"/>
    </radialGradient>
    <radialGradient id="nebulaR" cx="88%" cy="20%" r="50%">
      <stop offset="0%" stop-color="#6b3d8e" stop-opacity="0.4"/>
      <stop offset="100%" stop-color="#6b3d8e" stop-opacity="0"/>
    </radialGradient>
    <radialGradient id="titleGlow" cx="50%" cy="38%" r="45%">
      <stop offset="0%" stop-color="#f0a23a" stop-opacity="0.22"/>
      <stop offset="100%" stop-color="#f0a23a" stop-opacity="0"/>
    </radialGradient>
    <linearGradient id="hellGlow" x1="0" y1="1" x2="0" y2="0">
      <stop offset="0%" stop-color="#8b2020" stop-opacity="0.65"/>
      <stop offset="35%" stop-color="#c44a18" stop-opacity="0.25"/>
      <stop offset="100%" stop-color="#c44a18" stop-opacity="0"/>
    </linearGradient>
    <linearGradient id="goldText" x1="0" y1="0" x2="0" y2="1">
      <stop offset="0%" stop-color="#fff4c8"/>
      <stop offset="40%" stop-color="#ffd86a"/>
      <stop offset="100%" stop-color="#e08820"/>
    </linearGradient>
    <linearGradient id="sliderFill" x1="0" y1="0" x2="1" y2="0">
      <stop offset="0%" stop-color="#4a6298"/>
      <stop offset="100%" stop-color="#8eb4ff"/>
    </linearGradient>
    <linearGradient id="panelBg" x1="0" y1="0" x2="0" y2="1">
      <stop offset="0%" stop-color="#1a2248"/>
      <stop offset="100%" stop-color="#0e1224"/>
    </linearGradient>
    <linearGradient id="grass" x1="0" y1="0" x2="0" y2="1">
      <stop offset="0%" stop-color="#5aad4a"/>
      <stop offset="100%" stop-color="#3d7a32"/>
    </linearGradient>
    <linearGradient id="dirt" x1="0" y1="0" x2="0" y2="1">
      <stop offset="0%" stop-color="#8b5a38"/>
      <stop offset="100%" stop-color="#5c3820"/>
    </linearGradient>
    <linearGradient id="stone" x1="0" y1="0" x2="0" y2="1">
      <stop offset="0%" stop-color="#6a7088"/>
      <stop offset="100%" stop-color="#3a4058"/>
    </linearGradient>
    <radialGradient id="moonGlow" cx="50%" cy="50%" r="50%">
      <stop offset="0%" stop-color="#fff8e8" stop-opacity="0.9"/>
      <stop offset="70%" stop-color="#d8e2ff" stop-opacity="0.3"/>
      <stop offset="100%" stop-color="#d8e2ff" stop-opacity="0"/>
    </radialGradient>
    <linearGradient id="meteorTrail" x1="0" y1="0" x2="1" y2="0">
      <stop offset="0%" stop-color="#ff8a3a" stop-opacity="0"/>
      <stop offset="40%" stop-color="#ff8a3a" stop-opacity="0.9"/>
      <stop offset="100%" stop-color="#fff4c8" stop-opacity="1"/>
    </linearGradient>
    <linearGradient id="chloroGlow" x1="0" y1="0" x2="1" y2="1">
      <stop offset="0%" stop-color="#7ad36a" stop-opacity="0.5"/>
      <stop offset="100%" stop-color="#7ad36a" stop-opacity="0"/>
    </linearGradient>

    <filter id="softShadow" x="-30%" y="-30%" width="160%" height="160%">
      <feDropShadow dx="0" dy="6" stdDeviation="8" flood-color="#000" flood-opacity="0.65"/>
    </filter>
    <filter id="glowGold" x="-40%" y="-40%" width="180%" height="180%">
      <feGaussianBlur stdDeviation="3" result="b"/>
      <feMerge><feMergeNode in="b"/><feMergeNode in="SourceGraphic"/></feMerge>
    </filter>
    <filter id="gemGlow" x="-50%" y="-50%" width="200%" height="200%">
      <feGaussianBlur stdDeviation="4" result="blur"/>
      <feMerge><feMergeNode in="blur"/><feMergeNode in="SourceGraphic"/></feMerge>
    </filter>
    <filter id="panelShadow" x="-15%" y="-10%" width="130%" height="125%">
      <feDropShadow dx="0" dy="12" stdDeviation="14" flood-color="#000" flood-opacity="0.75"/>
    </filter>

    <pattern id="grid" width="48" height="48" patternUnits="userSpaceOnUse">
      <path d="M48 0 H0 V48" fill="none" stroke="#2e3868" stroke-width="0.8" opacity="0.28"/>
    </pattern>

    <symbol id="crystal" viewBox="-24 -28 48 56">
      <path d="M0,-24 L18,-8 L14,14 L-14,14 L-18,-8 Z" fill="currentColor"/>
      <path d="M0,-24 L18,-8 L0,4 L-18,-8 Z" fill="#fff" fill-opacity="0.28"/>
      <path d="M0,4 L18,-8 L14,14 L0,14 Z" fill="#000" fill-opacity="0.18"/>
      <path d="M-6,-14 L0,-24 L6,-14 L2,-6 Z" fill="#fff" fill-opacity="0.35"/>
      <circle cx="-8" cy="-10" r="2.5" fill="#fff" fill-opacity="0.5"/>
    </symbol>

    <symbol id="cog" viewBox="0 0 24 24">
      <circle cx="12" cy="12" r="4" fill="#9cb4ff"/>
      <g fill="#7e95d6" stroke="#5a73b4" stroke-width="1">
        <rect x="11" y="1" width="2" height="5" rx="1"/>
        <rect x="11" y="18" width="2" height="5" rx="1"/>
        <rect x="1" y="11" width="5" height="2" rx="1"/>
        <rect x="18" y="11" width="5" height="2" rx="1"/>
        <rect x="4.5" y="4.5" width="2" height="5" rx="1" transform="rotate(-45 5.5 7)"/>
        <rect x="17.5" y="4.5" width="2" height="5" rx="1" transform="rotate(45 18.5 7)"/>
        <rect x="4.5" y="14.5" width="2" height="5" rx="1" transform="rotate(45 5.5 17)"/>
        <rect x="17.5" y="14.5" width="2" height="5" rx="1" transform="rotate(-45 18.5 17)"/>
      </g>
    </symbol>

    <radialGradient id="vignette" cx="50%" cy="50%" r="72%">
      <stop offset="55%" stop-color="#000" stop-opacity="0"/>
      <stop offset="100%" stop-color="#000" stop-opacity="0.42"/>
    </radialGradient>
  </defs>

  <rect width="1200" height="630" fill="url(#skyTop)"/>
  <rect width="1200" height="630" fill="url(#grid)"/>
  <rect width="1200" height="630" fill="url(#nebulaL)"/>
  <rect width="1200" height="630" fill="url(#nebulaR)"/>
  <rect width="1200" height="630" fill="url(#titleGlow)"/>
  <rect width="1200" height="630" fill="url(#hellGlow)"/>

  <!-- Extended starfield -->
  <g fill="#e8eeff" opacity="0.85">
    <circle cx="89" cy="42" r="1.2"/><circle cx="210" cy="78" r="0.9"/><circle cx="340" cy="31" r="1.4"/>
    <circle cx="520" cy="55" r="1"/><circle cx="680" cy="28" r="1.3"/><circle cx="820" cy="62" r="0.8"/>
    <circle cx="950" cy="38" r="1.5"/><circle cx="1080" cy="72" r="1"/><circle cx="1150" cy="45" r="0.7"/>
    <circle cx="145" cy="120" r="0.8"/><circle cx="1050" cy="105" r="1.1"/><circle cx="580" cy="95" r="0.6"/>
    <circle cx="420" cy="140" r="1"/><circle cx="760" cy="118" r="0.9"/><circle cx="180" cy="165" r="0.7"/>
    <circle cx="1020" cy="155" r="1.2"/><circle cx="300" cy="88" r="0.5"/><circle cx="900" cy="130" r="0.6"/>
    <circle cx="55" cy="200" r="0.7"/><circle cx="400" cy="175" r="0.9"/><circle cx="1120" cy="190" r="1"/>
    <circle cx="650" cy="165" r="0.55"/><circle cx="830" cy="185" r="0.8"/>
  </g>
  <g fill="#fff" opacity="0.35">
    <circle cx="250" cy="48" r="2"/><circle cx="720" cy="42" r="2.2"/><circle cx="1100" cy="90" r="1.8"/>
    <circle cx="480" cy="62" r="1.5"/><circle cx="960" cy="110" r="2"/>
  </g>

  <!-- Moon + meteor -->
  <g opacity="0.9">
    <circle cx="108" cy="88" r="52" fill="url(#moonGlow)"/>
    <circle cx="108" cy="88" r="34" fill="#e8ecf8" opacity="0.95"/>
    <circle cx="98" cy="78" r="6" fill="#c8d0e8" opacity="0.5"/>
    <circle cx="118" cy="92" r="4" fill="#c8d0e8" opacity="0.4"/>
    <circle cx="108" cy="100" r="3" fill="#c8d0e8" opacity="0.35"/>
  </g>
  <g opacity="0.85">
    <path d="M180 55 L420 145" stroke="url(#meteorTrail)" stroke-width="14" stroke-linecap="round"/>
    <path d="M420 145 L455 158" stroke="#fff4c8" stroke-width="6" stroke-linecap="round"/>
    <circle cx="462" cy="161" r="18" fill="#ff8a3a" filter="url(#gemGlow)"/>
    <circle cx="462" cy="161" r="10" fill="#fff8e0" opacity="0.7"/>
  </g>
  <path d="M560 32 L600 48 L640 28" fill="none" stroke="#fff" stroke-width="1.5" opacity="0.25" stroke-linecap="round"/>

  <g opacity="0.12" transform="translate(600,200)">
    <path d="M0,-280 L-40,200 L40,200 Z" fill="#9cb4ff" transform="rotate(-18)"/>
    <path d="M0,-280 L-40,200 L40,200 Z" fill="#ffe7a8" transform="rotate(12)"/>
    <path d="M0,-280 L-30,200 L30,200 Z" fill="#fff" transform="rotate(0)"/>
  </g>

  <!-- World cross-section + biomes -->
  <g transform="translate(0,480)">
    <path d="M0,0 Q300,40 600,20 T1200,0 L1200,150 L0,150 Z" fill="url(#hellGlow)" opacity="0.9"/>
    <rect x="0" y="55" width="1200" height="55" fill="url(#stone)"/>
    <rect x="0" y="35" width="1200" height="28" fill="url(#dirt)"/>
    <rect x="0" y="18" width="1200" height="22" fill="url(#grass)"/>
    <path d="M0,18 Q80,8 160,18 T320,14 T480,20 T640,12 T800,18 T960,14 T1120,16 T1200,18 L1200,0 L0,0 Z" fill="#4a9e3a" opacity="0.9"/>
    <ellipse cx="200" cy="70" rx="45" ry="22" fill="#0a0e22" opacity="0.5"/>
    <ellipse cx="980" cy="65" rx="60" ry="28" fill="#0a0e22" opacity="0.45"/>
    <ellipse cx="520" cy="72" rx="35" ry="16" fill="#0a0e22" opacity="0.35"/>
    <!-- Corruption / crimson patches -->
    <path d="M60,18 Q90,22 120,18 L130,40 L50,38 Z" fill="#6b3d8e" opacity="0.55"/>
    <path d="M1080,16 Q1110,20 1140,17 L1150,38 L1070,36 Z" fill="#9a3048" opacity="0.5"/>
    <!-- Lava bubbles -->
    <circle cx="340" cy="8" r="5" fill="#ff6a2a" opacity="0.7"/><circle cx="880" cy="6" r="4" fill="#ff8a3a" opacity="0.6"/>
  </g>

  <!-- Dungeon spire + pyramid -->
  <g opacity="0.5" transform="translate(368,430)">
    <rect x="-12" y="0" width="24" height="52" fill="#3a4058"/>
    <rect x="-20" y="8" width="40" height="8" fill="#4a5068"/>
    <rect x="-16" y="20" width="32" height="6" fill="#4a5068"/>
    <path d="M-14,-8 L0,-28 L14,-8 Z" fill="#5a6080"/>
  </g>
  <g opacity="0.45" transform="translate(1120,455)">
    <path d="M0,0 L28,-42 L56,0 Z" fill="#c9a85a"/>
    <rect x="8" y="0" width="40" height="12" fill="#8b7350"/>
  </g>

  <rect x="20" y="20" width="1160" height="590" rx="16" fill="none" stroke="#5a73b4" stroke-width="2" opacity="0.5"/>
  <rect x="28" y="28" width="1144" height="574" rx="12" fill="none" stroke="#3d4f82" stroke-width="1" opacity="0.35"/>
  <path d="M36 36 H72 V52 H52 V72 H36 Z" fill="#7e95d6" opacity="0.6"/>
  <path d="M1164 36 H1128 V52 H1148 V72 H1164 Z" fill="#7e95d6" opacity="0.6"/>
  <path d="M36 594 H72 V578 H52 V558 H36 Z" fill="#7e95d6" opacity="0.4"/>
  <path d="M1164 594 H1128 V578 H1148 V558 H1164 Z" fill="#7e95d6" opacity="0.4"/>

  <!-- V2 UI mockup -->
  <g filter="url(#panelShadow)">
    <rect x="42" y="72" width="318" height="456" rx="12" fill="url(#panelBg)" stroke="#5a73b4" stroke-width="2"/>
    <rect x="42" y="72" width="318" height="52" rx="12" fill="#121830"/>
    <use href="#cog" x="54" y="86" width="22" height="22"/>
    <text x="82" y="104" font-family="Segoe UI, Verdana, sans-serif" font-size="15" font-weight="700" fill="#9cb4ff" letter-spacing="1">WORLD CONFIG</text>
    <rect x="248" y="88" width="96" height="22" rx="11" fill="#2a3820" stroke="#7ad36a" stroke-width="1.5"/>
    <circle cx="262" cy="99" r="4" fill="#7ad36a"/>
    <text x="272" y="104" font-family="Segoe UI, Verdana, sans-serif" font-size="11" font-weight="700" fill="#b8f0c8">CUSTOM</text>
    <rect x="50" y="128" width="68" height="16" rx="4" fill="#1a2848" stroke="#5a73b4" stroke-width="1"/>
    <text x="58" y="140" font-family="Segoe UI, Verdana, sans-serif" font-size="8" font-weight="700" fill="#8aa0d0">SAVED</text>

    <rect x="50" y="148" width="302" height="22" rx="4" fill="#0c1024" stroke="#3d4f82" stroke-width="1"/>
    <text x="58" y="163" font-family="Consolas, monospace" font-size="9.5" fill="#8aa0d0">8400×2400 · Large · 18 changes</text>

    <rect x="50" y="178" width="72" height="342" rx="6" fill="#0a0e1c" stroke="#3d4f82" stroke-width="1"/>
    <g font-family="Segoe UI, Verdana, sans-serif" font-size="10" font-weight="600">
      <text x="62" y="203" fill="#8aa0d0">World</text>
      <text x="62" y="228" fill="#8aa0d0">Shape</text>
      <rect x="54" y="238" width="64" height="26" rx="4" fill="#2a3868"/>
      <text x="62" y="255" fill="#ffe7a8">Feat Ď5</text>
      <text x="62" y="280" fill="#8aa0d0">Ores Ď3</text>
      <text x="62" y="305" fill="#8aa0d0">Presets</text>
      <text x="62" y="330" fill="#8aa0d0">Info</text>
    </g>

    <g transform="translate(130,186)" font-family="Segoe UI, Verdana, sans-serif">
      <text x="0" y="12" font-size="9" font-weight="700" fill="#9cb4ff">FLOAT ISLANDS</text>
      <text x="200" y="12" font-size="9" font-weight="700" fill="#7ad36a" text-anchor="end">×3.0</text>
      <rect x="0" y="18" width="200" height="5" rx="2.5" fill="#0c1024"/>
      <rect x="0" y="18" width="150" height="5" rx="2.5" fill="url(#sliderFill)"/>

      <text x="0" y="42" font-size="9" font-weight="700" fill="#9cb4ff">HIVES</text>
      <rect x="0" y="48" width="200" height="5" rx="2.5" fill="#0c1024"/>
      <rect x="0" y="48" width="120" height="5" rx="2.5" fill="#c9a030"/>

      <text x="0" y="72" font-size="9" font-weight="700" fill="#9cb4ff">CHLOROPHYTE</text>
      <circle cx="88" cy="68" r="3.5" fill="#7ad36a"/>
      <rect x="0" y="78" width="200" height="5" rx="2.5" fill="#0c1024"/>
      <rect x="0" y="78" width="165" height="5" rx="2.5" fill="#3d8a48"/>

      <text x="0" y="102" font-size="9" font-weight="700" fill="#9cb4ff">COPPER</text>
      <text x="200" y="102" font-size="9" fill="#8aa0d0" text-anchor="end">×2.5</text>
      <rect x="0" y="108" width="200" height="5" rx="2.5" fill="#0c1024"/>
      <rect x="0" y="108" width="100" height="5" rx="2.5" fill="#6e87b6"/>
    </g>

    <g transform="translate(130,340)" font-family="Segoe UI, Verdana, sans-serif" font-size="8" font-weight="700">
      <rect x="0" y="0" width="36" height="18" rx="4" fill="#1e2848" stroke="#5a73b4"/><text x="8" y="12" fill="#8aa0d0">S</text>
      <rect x="40" y="0" width="36" height="18" rx="4" fill="#1e2848" stroke="#5a73b4"/><text x="48" y="12" fill="#8aa0d0">M</text>
      <rect x="80" y="0" width="36" height="18" rx="4" fill="#2a3868" stroke="#ffe7a8" stroke-width="1.2"/><text x="86" y="12" fill="#ffe7a8">L</text>
      <rect x="120" y="0" width="36" height="18" rx="4" fill="#1e2848" stroke="#5a73b4"/><text x="124" y="12" fill="#8aa0d0">XL</text>
      <rect x="160" y="0" width="40" height="18" rx="4" fill="#1e2848" stroke="#5a73b4"/><text x="166" y="12" fill="#8aa0d0">XXL</text>
    </g>
    <rect x="130" y="368" width="200" height="20" rx="4" fill="#143828" stroke="#7ad36a" stroke-width="1"/>
    <text x="138" y="382" font-family="Segoe UI, Verdana, sans-serif" font-size="8" font-weight="700" fill="#b8f0c8">Resource Rich bundle</text>

    <rect x="50" y="498" width="302" height="22" rx="4" fill="#121830"/>
    <text x="201" y="513" font-family="Segoe UI, Verdana, sans-serif" font-size="10" font-weight="600" fill="#7e95d6" text-anchor="middle">Apply &amp; Back</text>
  </g>

  <g text-anchor="middle" filter="url(#softShadow)">
    <text x="720" y="118" font-family="Segoe UI, Verdana, sans-serif" font-size="22" font-weight="700" letter-spacing="10" fill="#7e95d6" opacity="0.95">TERRARIA</text>
    <text x="720" y="148" font-family="Segoe UI, Verdana, sans-serif" font-size="18" font-weight="600" letter-spacing="6" fill="#5a73b4">tMODLOADER MOD</text>
  </g>

  <g text-anchor="middle" filter="url(#glowGold)">
    <text x="720" y="268" font-family="Segoe UI, Verdana, sans-serif" font-size="108" font-weight="900" letter-spacing="2" fill="url(#goldText)" stroke="#4a2808" stroke-width="4" paint-order="stroke fill">WORLD</text>
    <text x="720" y="368" font-family="Segoe UI, Verdana, sans-serif" font-size="108" font-weight="900" letter-spacing="6" fill="url(#goldText)" stroke="#4a2808" stroke-width="4" paint-order="stroke fill">CONFIG</text>
  </g>

  <text x="720" y="402" text-anchor="middle" font-family="Segoe UI, Verdana, sans-serif" font-size="22" font-weight="600" fill="#d8e2ff" letter-spacing="1.5" filter="url(#softShadow)">
    30+ sliders · Persisted settings · Supplement world gen
  </text>

  <g transform="translate(420,418)" font-family="Segoe UI, Verdana, sans-serif" font-size="11" font-weight="700">
    <rect x="0" y="0" width="100" height="26" rx="13" fill="#141c38" stroke="#5a73b4" stroke-width="1.2"/>
    <text x="50" y="18" text-anchor="middle" fill="#9cb4ff">21 ORES</text>
    <rect x="108" y="0" width="96" height="26" rx="13" fill="#141c38" stroke="#5a73b4" stroke-width="1.2"/>
    <text x="156" y="18" text-anchor="middle" fill="#9cb4ff">30+ CTRL</text>
    <rect x="212" y="0" width="118" height="26" rx="13" fill="#141c38" stroke="#5a73b4" stroke-width="1.2"/>
    <text x="271" y="18" text-anchor="middle" fill="#9cb4ff">3 BUNDLES</text>
    <rect x="338" y="0" width="108" height="26" rx="13" fill="#141c38" stroke="#5a73b4" stroke-width="1.2"/>
    <text x="392" y="18" text-anchor="middle" fill="#9cb4ff">V2 UI</text>
    <rect x="454" y="0" width="118" height="26" rx="13" fill="#143d28" stroke="#7ad36a" stroke-width="1.5"/>
    <text x="513" y="18" text-anchor="middle" fill="#b8f0c8">CUSTOM</text>
    <rect x="580" y="0" width="100" height="26" rx="13" fill="#1a2848" stroke="#8eb4ff" stroke-width="1.2"/>
    <text x="630" y="18" text-anchor="middle" fill="#9cb4ff">SAVES</text>
  </g>

  <g transform="translate(480,458)" filter="url(#softShadow)">
    <rect x="0" y="0" width="480" height="110" rx="14" fill="#121830" fill-opacity="0.94" stroke="#5a73b4" stroke-width="1.5"/>
    <text x="20" y="26" font-family="Segoe UI, Verdana, sans-serif" font-size="13" font-weight="700" fill="#9cb4ff" letter-spacing="2">GLOBAL FREQUENCY</text>
    <text x="460" y="26" font-family="Segoe UI, Verdana, sans-serif" font-size="13" font-weight="700" fill="#ffe7a8" text-anchor="end">×20.00</text>
    <rect x="20" y="34" width="440" height="10" rx="5" fill="#0c1024"/>
    <rect x="20" y="34" width="418" height="10" rx="5" fill="url(#sliderFill)"/>
    <circle cx="438" cy="39" r="11" fill="#ffe7a8" stroke="#3a1d05" stroke-width="2"/>

    <text x="20" y="68" font-family="Segoe UI, Verdana, sans-serif" font-size="13" font-weight="700" fill="#9cb4ff" letter-spacing="2">VEIN SIZE</text>
    <text x="460" y="68" font-family="Segoe UI, Verdana, sans-serif" font-size="13" font-weight="700" fill="#7ad36a" text-anchor="end">+1900%</text>
    <rect x="20" y="76" width="440" height="10" rx="5" fill="#0c1024"/>
    <rect x="20" y="76" width="400" height="10" rx="5" fill="url(#sliderFill)"/>
    <circle cx="420" cy="81" r="9" fill="#ffe7a8" stroke="#3a1d05" stroke-width="1.5"/>

    <text x="20" y="100" font-family="Segoe UI, Verdana, sans-serif" font-size="11" font-weight="600" fill="#5a73b4">CAVE DEPTH ×1.6 · DUNGEON LEFT · METEOR ×2</text>
  </g>

  <rect x="850" y="80" width="200" height="120" rx="8" fill="url(#chloroGlow)" opacity="0.35"/>

  <g filter="url(#gemGlow)">
    <use href="#crystal" x="900" y="75"  width="88" height="102" color="#e8d35a"/>
    <use href="#crystal" x="1020" y="135" width="72" height="84"  color="#6e87b6"/>
    <use href="#crystal" x="860" y="185" width="64" height="74"  color="#7fd6c8"/>
    <use href="#crystal" x="1000" y="235" width="96" height="112" color="#ff8a3a"/>
    <use href="#crystal" x="930" y="315" width="70" height="82"  color="#b94a4a"/>
    <use href="#crystal" x="1060" y="345" width="58" height="68"  color="#a560c8"/>
    <use href="#crystal" x="870" y="385" width="52" height="60"  color="#e2eaf2"/>
    <use href="#crystal" x="1040" y="415" width="76" height="88"  color="#7ad36a"/>
    <use href="#crystal" x="1090" y="95"  width="48" height="56"  color="#3d9a68"/>
    <use href="#crystal" x="835" y="440" width="44" height="52"  color="#d4a84a"/>
    <use href="#crystal" x="1115" y="470" width="40" height="48"  color="#88c8ff"/>
  </g>

  <g fill="#fff" opacity="0.7">
    <path d="M958 100 l4 8 l-8 4 l8 4 l-4 8 l4-8 l8-4 l-8-4z"/>
    <path d="M1088 180 l3 6 l-6 3 l6 3 l-3 6 l3-6 l6-3 l-6-3z"/>
    <path d="M1020 360 l4 8 l-8 4 l8 4 l-4 8 l4-8 l8-4 l-8-4z" transform="scale(0.7)"/>
    <path d="M890 250 l3 6 l-6 3 l6 3 l-3 6 l3-6 l6-3 l-6-3z"/>
  </g>

  <g opacity="0.38" transform="translate(1050,48)">
    <ellipse cx="0" cy="0" rx="55" ry="18" fill="#3d5a4a"/>
    <rect x="-40" y="-8" width="80" height="12" rx="4" fill="#4a7058"/>
    <ellipse cx="0" cy="-12" rx="35" ry="10" fill="#5aad4a" opacity="0.6"/>
  </g>
  <g opacity="0.28" transform="translate(780,62) scale(0.75)">
    <ellipse cx="0" cy="0" rx="55" ry="18" fill="#3d5a4a"/>
    <ellipse cx="0" cy="-12" rx="35" ry="10" fill="#5aad4a" opacity="0.6"/>
  </g>

  <!-- Spider web + hive -->
  <g stroke="#8aa0d0" stroke-width="0.8" fill="none" opacity="0.35">
    <path d="M1140 520 L1160 560 M1150 520 L1130 560 M1145 525 L1145 555 M1135 540 L1165 540"/>
  </g>
  <g transform="translate(48,455)" opacity="0.5">
    <path d="M0,0 L14,-8 L28,0 L28,14 L14,22 L0,14 Z" fill="#c9a030" stroke="#8b7020"/>
    <path d="M6,6 L14,2 L22,6" fill="none" stroke="#5a4010" stroke-width="1"/>
  </g>

  <g text-anchor="middle" font-family="Segoe UI, Verdana, sans-serif">
    <text x="600" y="598" font-size="12" font-weight="600" fill="#5a73b4" letter-spacing="2">Terraria 1.4.4.9 · tModLoader 2026.3.3.0 · net8.0 · WorldConfigMod</text>
  </g>

  <rect width="1200" height="630" fill="url(#vignette)" pointer-events="none"/>
</svg>
